<svg width="19" height="23" viewBox="0 0 19 23" fill="none" xmlns="http://www.w3.org/2000/svg">
<g clip-path="url(#clip0_211_2072)">
<path d="M16.2363 4.12801L15.5969 20.796C15.5882 20.9371 15.5246 21.0699 15.4189 21.1677C15.3132 21.2656 15.1731 21.3214 15.0266 21.3239H3.97339C3.82703 21.321 3.68716 21.2651 3.58153 21.1673C3.4759 21.0695 3.41224 20.937 3.40317 20.796L2.76374 4.12801C2.75019 3.91071 2.64905 3.70716 2.48194 3.5609C2.31484 3.41464 2.09505 3.33728 1.8696 3.34538C1.64414 3.35349 1.43092 3.4464 1.27556 3.60425C1.1202 3.76211 1.03503 3.97235 1.03827 4.19002L1.6777 20.858C1.70229 21.4304 1.95461 21.9716 2.38219 22.3691C2.80976 22.7665 3.37968 22.9896 3.97339 22.992H15.0283C15.622 22.9896 16.1919 22.7665 16.6195 22.3691C17.0471 21.9716 17.2994 21.4304 17.324 20.858L17.9634 4.19002C17.9719 3.96903 17.8891 3.75383 17.7332 3.59175C17.5773 3.42967 17.361 3.334 17.132 3.32577C16.903 3.31755 16.6799 3.39745 16.5119 3.5479C16.344 3.69834 16.2448 3.90702 16.2363 4.12801Z" fill="black" fill-opacity="0.75"/>
<path d="M8.80865 7.49916V18.8322C8.80865 19.0089 8.88141 19.1784 9.0109 19.3033C9.1404 19.4283 9.31604 19.4985 9.49917 19.4985C9.68231 19.4985 9.85795 19.4283 9.98745 19.3033C10.1169 19.1784 10.1897 19.0089 10.1897 18.8322V7.49916C10.1897 7.32245 10.1169 7.15298 9.98745 7.02803C9.85795 6.90308 9.68231 6.83289 9.49917 6.83289C9.31604 6.83289 9.1404 6.90308 9.0109 7.02803C8.88141 7.15298 8.80865 7.32245 8.80865 7.49916Z" fill="black" fill-opacity="0.75"/>
<path d="M5.0083 7.51982L5.35439 18.8529C5.35985 19.0296 5.43784 19.1969 5.5712 19.3182C5.63723 19.3782 5.71488 19.4251 5.79969 19.4561C5.8845 19.4872 5.97482 19.5019 6.0655 19.4993C6.15618 19.4966 6.24544 19.4768 6.32819 19.4409C6.41093 19.405 6.48554 19.3538 6.54774 19.2901C6.60995 19.2263 6.65854 19.1514 6.69075 19.0696C6.72295 18.9878 6.73813 18.9006 6.73543 18.8131L6.38934 7.48007C6.38388 7.30336 6.30589 7.13599 6.17253 7.01476C6.03917 6.89354 5.86136 6.8284 5.67823 6.83367C5.49509 6.83894 5.32162 6.9142 5.19599 7.04287C5.07035 7.17155 5.00284 7.34311 5.0083 7.51982Z" fill="black" fill-opacity="0.75"/>
<path d="M12.609 7.48007L12.2629 18.8131C12.2602 18.9006 12.2754 18.9878 12.3076 19.0696C12.3398 19.1514 12.3884 19.2263 12.4506 19.2901C12.5128 19.3538 12.5874 19.405 12.6701 19.4409C12.7529 19.4768 12.8421 19.4966 12.9328 19.4993C13.0235 19.5019 13.1138 19.4872 13.1986 19.4561C13.2834 19.4251 13.3611 19.3782 13.4271 19.3182C13.4931 19.2581 13.5463 19.1862 13.5835 19.1063C13.6207 19.0265 13.6412 18.9404 13.6439 18.8529L13.99 7.51982C13.9927 7.43233 13.9775 7.34517 13.9453 7.26333C13.9131 7.1815 13.8645 7.10659 13.8023 7.04287C13.7401 6.97916 13.6655 6.92789 13.5828 6.89199C13.5 6.8561 13.4108 6.83628 13.3201 6.83367C13.2294 6.83106 13.1391 6.84571 13.0543 6.87678C12.9695 6.90785 12.8918 6.95474 12.8258 7.01476C12.7597 7.07479 12.7066 7.14677 12.6694 7.22661C12.6322 7.30645 12.6117 7.39257 12.609 7.48007Z" fill="black" fill-opacity="0.75"/>
<path d="M0.863562 4.5001H18.1282C18.2416 4.5001 18.3539 4.47855 18.4587 4.43667C18.5634 4.3948 18.6586 4.33342 18.7388 4.25605C18.819 4.17868 18.8826 4.08682 18.926 3.98573C18.9694 3.88463 18.9918 3.77628 18.9918 3.66686C18.9918 3.55744 18.9694 3.44908 18.926 3.34799C18.8826 3.2469 18.819 3.15504 18.7388 3.07767C18.6586 3.0003 18.5634 2.93892 18.4587 2.89704C18.3539 2.85517 18.2416 2.83362 18.1282 2.83362H0.863562C0.634531 2.83362 0.414882 2.92141 0.252932 3.07767C0.0909832 3.23393 0 3.44587 0 3.66686C0 3.88785 0.0909832 4.09979 0.252932 4.25605C0.414882 4.41231 0.634531 4.5001 0.863562 4.5001Z" fill="black" fill-opacity="0.75"/>
<path d="M6.86896 3.39498L7.22823 2.1801C7.28434 2.03901 7.38033 1.91594 7.50531 1.82486C7.63029 1.73379 7.77924 1.67837 7.93523 1.66489H11.05C11.206 1.67837 11.3549 1.73379 11.4799 1.82486C11.6049 1.91594 11.7009 2.03901 11.757 2.1801L12.1163 3.39498L13.7775 2.93702L13.4182 1.72214C13.259 1.23377 12.946 0.80544 12.5227 0.49677C12.0994 0.188101 11.5869 0.0144533 11.0566 0H7.94182C7.41018 0.0134917 6.89618 0.186859 6.47161 0.495891C6.04703 0.804922 5.73309 1.23419 5.57362 1.72373L5.21436 2.93861L6.86896 3.39498Z" fill="black" fill-opacity="0.75"/>
</g>
<defs>
<clipPath id="clip0_211_2072">
<rect width="19" height="23" fill="white"/>
</clipPath>
</defs>
</svg>
