<svg
          width="16"
          height="16"
          viewBox="0 0 16 16"
          fill="none"
          xmlns="http://www.w3.org/2000/svg"
        >
          <g clip-path="url(#clip0_88_2044)">
            <path
              fill-rule="evenodd"
              clip-rule="evenodd"
              d="M0 0.785C0 0.576805 0.0827051 0.377137 0.229921 0.229921C0.377137 0.0827051 0.576805 0 0.785 0H7.847V1.569H1.569V14.124H14.124V7.847H15.693V14.909C15.693 15.0121 15.6727 15.1142 15.6332 15.2094C15.5938 15.3046 15.536 15.3912 15.4631 15.4641C15.3902 15.537 15.3036 15.5948 15.2084 15.6342C15.1132 15.6737 15.0111 15.694 14.908 15.694H0.785C0.576805 15.694 0.377137 15.6113 0.229921 15.4641C0.0827051 15.3169 0 15.1172 0 14.909V0.785Z"
              fill="#185D93"
            />
            <path
              d="M15.693 2.3L13.396 0L11.884 1.512L14.184 3.812L15.693 2.3Z"
              fill="#185D93"
            />
            <path
              d="M6.27698 9.41604L8.80298 9.18604L13.071 4.91804L10.771 2.61804L6.50698 6.89004L6.27698 9.41604Z"
              fill="#185D93"
            />
          </g>
          <defs>
            <clipPath id="clip0_88_2044">
              <rect width="15.693" height="15.693" fill="white" />
            </clipPath>
          </defs>
        </svg>